<svg width="32px" height="32px" viewBox="0 0 4 4" xmlns="http://www.w3.org/2000/svg"><path fill-rule="evenodd" clip-rule="evenodd" fill="#FF6602" d="M0.93 3.16 0 2.68V1.306L2.07 0.28 3 0.76v1.38L0.93 3.16z"/><path fill-rule="evenodd" clip-rule="evenodd" fill="#FF6602" d="M0 2.582v0.119l0.928 0.477 2.065 -1.014V2.045L0.928 3.059 0 2.582zm0 -0.209v0.119l0.928 0.477 2.065 -1.014V1.836L0.928 2.851 0 2.373zm0 -0.418v0.119l0.928 0.477 2.065 -1.014V1.419L0.928 2.433 0 1.956zm0 0.209v0.119l0.928 0.477 2.065 -1.014v-0.119L0.928 2.642 0 2.165zm0 -0.418v0.119l0.928 0.477 2.065 -1.014V1.21L0.928 2.224 0 1.747zm0.93 0.058L0 1.323v0.121l0.93 0.482L3 0.902v-0.121L0.93 1.805zM0 1.538v0.119l0.93 0.477 2.07 -1.014v-0.119L0.93 2.015 0 1.538z"/><path fill-rule="evenodd" clip-rule="evenodd" fill="#FF6602" d="M1.925 3.675 1 3.198V2.026l2.06 -1.014L4 1.492v1.16L1.925 3.675z"/><path fill-rule="evenodd" clip-rule="evenodd" fill="#FF6602" d="M1 3.083v0.119L1.93 3.68 4 2.666v-0.119L1.93 3.561 1 3.083zm0 -0.209v0.119L1.93 3.471 4 2.457v-0.119L1.93 3.352 1 2.875zm0 -0.418v0.119l0.93 0.477L4 2.039V1.92L1.93 2.934 1 2.457zm0 0.209v0.119L1.93 3.262 4 2.248v-0.119L1.93 3.143 1 2.666zm0 -0.418v0.119l0.93 0.477L4 1.831V1.711L1.93 2.725 1 2.248zm0.93 0.255L1 2.026v0.119l0.93 0.477L4 1.608v-0.119L1.93 2.503z"/><path opacity=".1" d="M0.928 1.807 0 1.33v1.374L0.93 3.18l-0.002 -1.373zm1 0.697L1 2.027v1.172l0.93 0.476 -0.002 -1.171z"/><path fill-rule="evenodd" clip-rule="evenodd" fill="#FF6602" d="m2.4 2.024 -0.455 0.218 -0.388 -0.209 0.526 -0.257s-0.036 -0.105 -0.014 -0.121c0 0.002 -0.775 0.388 -0.775 0.388l0.663 0.332 0.682 -0.341s-0.067 0.002 -0.126 0c-0.06 -0.002 -0.113 -0.01 -0.113 -0.01zm0.538 -0.14L3.74 1.5l-0.652 -0.354 -0.681 0.341c0.103 -0.005 0.188 0.039 0.188 0.039l0.485 -0.238 0.418 0.209 -0.56 0.269 0 0.119z"/><path fill="#FF6602" d="M2.569 1.878a0.223 0.223 0 0 0 0.08 -0.012l-0.141 -0.075 -0.012 0.003 -0.015 0.005c-0.021 0.006 -0.042 0.012 -0.064 0.017 -0.022 0.005 -0.044 0.009 -0.067 0.01s-0.045 0 -0.068 -0.004a0.23 0.23 0 0 1 -0.068 -0.024c-0.023 -0.012 -0.039 -0.025 -0.048 -0.039 -0.009 -0.014 -0.012 -0.028 -0.01 -0.042 0.002 -0.014 0.009 -0.027 0.022 -0.041a0.205 0.205 0 0 1 0.046 -0.037l-0.052 -0.028 0.039 -0.021 0.052 0.028a0.446 0.446 0 0 1 0.069 -0.023 0.376 0.376 0 0 1 0.073 -0.01 0.349 0.349 0 0 1 0.075 0.005 0.302 0.302 0 0 1 0.075 0.024l-0.094 0.05a0.153 0.153 0 0 0 -0.063 -0.016c-0.023 -0.001 -0.042 0.002 -0.057 0.01l0.12 0.063 0.02 -0.006 0.022 -0.007c0.042 -0.013 0.078 -0.02 0.109 -0.022 0.031 -0.002 0.058 -0.002 0.081 0.001 0.023 0.003 0.042 0.008 0.058 0.015 0.016 0.007 0.03 0.013 0.041 0.019 0.01 0.005 0.02 0.013 0.03 0.024 0.01 0.011 0.016 0.023 0.018 0.037 0.002 0.014 -0.002 0.03 -0.012 0.047 -0.01 0.017 -0.031 0.035 -0.062 0.054l0.057 0.03 -0.039 0.021 -0.057 -0.03c-0.053 0.024 -0.108 0.037 -0.163 0.037 -0.055 0 -0.112 -0.013 -0.169 -0.038l0.094 -0.05a0.173 0.173 0 0 0 0.081 0.022zm0.138 -0.049c0.006 -0.006 0.009 -0.012 0.011 -0.019a0.028 0.028 0 0 0 -0.003 -0.02c-0.003 -0.007 -0.011 -0.013 -0.021 -0.018a0.105 0.105 0 0 0 -0.056 -0.012c-0.02 0.001 -0.046 0.007 -0.08 0.017l0.13 0.069a0.104 0.104 0 0 0 0.019 -0.016zM2.283 1.696a0.03 0.03 0 0 0 -0.009 0.016 0.022 0.022 0 0 0 0.004 0.017c0.004 0.005 0.01 0.011 0.02 0.016 0.015 0.008 0.031 0.012 0.048 0.011 0.017 -0.001 0.039 -0.005 0.065 -0.014l-0.11 -0.058a0.074 0.074 0 0 0 -0.019 0.013z"/><path fill-rule="evenodd" clip-rule="evenodd" fill="#FF6602" d="M1.383 1.304 0.929 1.523l-0.388 -0.209 0.526 -0.257s-0.037 -0.105 -0.014 -0.121c0 0.002 -0.775 0.388 -0.775 0.388l0.663 0.332 0.682 -0.341s-0.067 0.002 -0.126 0c-0.06 -0.002 -0.113 -0.01 -0.113 -0.01zm0.538 -0.14L2.723 0.78l-0.652 -0.354 -0.681 0.341c0.103 -0.005 0.188 0.039 0.188 0.039l0.485 -0.238 0.418 0.209 -0.56 0.269 0 0.119z"/><path fill="#FF6602" d="M1.553 1.158a0.222 0.222 0 0 0 0.08 -0.012l-0.141 -0.075 -0.012 0.003 -0.015 0.005a1.154 1.154 0 0 1 -0.064 0.017c-0.022 0.005 -0.044 0.009 -0.067 0.01s-0.045 0 -0.068 -0.004a0.23 0.23 0 0 1 -0.068 -0.024c-0.023 -0.012 -0.039 -0.025 -0.048 -0.039 -0.009 -0.014 -0.012 -0.028 -0.01 -0.042 0.002 -0.014 0.009 -0.027 0.022 -0.041a0.205 0.205 0 0 1 0.046 -0.037l-0.052 -0.028 0.039 -0.021 0.052 0.028a0.446 0.446 0 0 1 0.069 -0.023 0.376 0.376 0 0 1 0.073 -0.01 0.349 0.349 0 0 1 0.075 0.005 0.302 0.302 0 0 1 0.075 0.024l-0.094 0.05a0.153 0.153 0 0 0 -0.063 -0.016c-0.023 -0.001 -0.042 0.002 -0.057 0.01l0.12 0.063 0.02 -0.007 0.022 -0.007c0.042 -0.013 0.078 -0.02 0.109 -0.022 0.031 -0.002 0.058 -0.002 0.081 0.001 0.023 0.003 0.042 0.008 0.058 0.015 0.016 0.007 0.03 0.013 0.041 0.019 0.01 0.005 0.02 0.013 0.03 0.024 0.01 0.011 0.016 0.023 0.018 0.037 0.002 0.014 -0.002 0.03 -0.012 0.047 -0.01 0.017 -0.031 0.035 -0.062 0.054l0.057 0.03 -0.039 0.021 -0.057 -0.03c-0.053 0.024 -0.108 0.037 -0.163 0.037 -0.055 0 -0.112 -0.013 -0.169 -0.038l0.094 -0.05c0.025 0.014 0.052 0.021 0.081 0.022zm0.138 -0.049c0.006 -0.006 0.009 -0.012 0.011 -0.019a0.028 0.028 0 0 0 -0.003 -0.02c-0.003 -0.007 -0.011 -0.013 -0.021 -0.018a0.105 0.105 0 0 0 -0.056 -0.012l-0.08 0.017 0.13 0.069c0.007 -0.005 0.014 -0.01 0.019 -0.016zm-0.424 -0.134a0.03 0.03 0 0 0 -0.009 0.016 0.022 0.022 0 0 0 0.004 0.017c0.004 0.005 0.01 0.011 0.02 0.016 0.015 0.008 0.031 0.012 0.048 0.011 0.017 -0.001 0.039 -0.005 0.065 -0.014l-0.11 -0.058a0.073 0.073 0 0 0 -0.019 0.013z"/></svg>